<svg height='100px' width='100px'  fill="#000000" xmlns="http://www.w3.org/2000/svg" data-name="Layer 1" viewBox="0 0 100 100" x="0px" y="0px"><title>Artboard 6</title><path d="M63.33,71.22a7.89,7.89,0,1,1,7.89-7.89A7.9,7.9,0,0,1,63.33,71.22ZM55.78,49.36a15.9,15.9,0,1,1-6.42,6.42A9.13,9.13,0,0,1,40,55.21a9.13,9.13,0,0,1-9,7.43H28.68v2.89A4,4,0,0,0,32,69.47l5.19.91a26.93,26.93,0,0,0,2.68,6.47l-3,4.32a4,4,0,0,0,.45,5.12l3.11,3.11a4,4,0,0,0,5.12.45l4.32-3a26.9,26.9,0,0,0,6.47,2.68l.91,5.19A4,4,0,0,0,61.13,98h4.4a4,4,0,0,0,3.93-3.3l.91-5.19a27,27,0,0,0,6.47-2.68l4.32,3a4,4,0,0,0,5.12-.45l3.11-3.11a4,4,0,0,0,.45-5.12l-3-4.32a26.87,26.87,0,0,0,2.68-6.47l5.19-.91A4,4,0,0,0,98,65.53v-4.4a4,4,0,0,0-3.3-3.93l-5.19-.91a26.88,26.88,0,0,0-2.68-6.47l3-4.32a4,4,0,0,0-.45-5.12l-3.11-3.11a4,4,0,0,0-5.12-.45l-4.32,3a26.91,26.91,0,0,0-6.47-2.68L69.47,32a4,4,0,0,0-3.93-3.3h-2.9v2.39a9.13,9.13,0,0,1-7.43,9A9.13,9.13,0,0,1,55.78,49.36ZM2,31.06V27.59a3.15,3.15,0,0,1,2.6-3.1l4.09-.72a21.21,21.21,0,0,1,2.11-5.1l-2.39-3.4a3.15,3.15,0,0,1,.35-4l2.45-2.45a3.15,3.15,0,0,1,4-.35l3.4,2.39a21.18,21.18,0,0,1,5.1-2.11l.72-4.09A3.15,3.15,0,0,1,27.59,2h3.47a3.15,3.15,0,0,1,3.1,2.6l.72,4.09A21.2,21.2,0,0,1,40,10.82l3.4-2.39a3.15,3.15,0,0,1,4,.35l2.45,2.45a3.15,3.15,0,0,1,.35,4l-2.39,3.4a21.2,21.2,0,0,1,2.11,5.1l4.09.72a3.15,3.15,0,0,1,2.6,3.1v3.47a3.15,3.15,0,0,1-2.6,3.1l-4.09.72A21.19,21.19,0,0,1,47.83,40l2.39,3.4a3.15,3.15,0,0,1-.35,4l-2.45,2.45a3.15,3.15,0,0,1-4,.35L40,47.83a21.23,21.23,0,0,1-5.1,2.11L34.16,54a3.15,3.15,0,0,1-3.1,2.6H27.59a3.15,3.15,0,0,1-3.1-2.6l-.72-4.09a21.2,21.2,0,0,1-5.1-2.11l-3.4,2.39a3.15,3.15,0,0,1-4-.35L8.79,47.41a3.15,3.15,0,0,1-.35-4L10.82,40a21.21,21.21,0,0,1-2.11-5.1l-4.09-.72A3.15,3.15,0,0,1,2,31.06ZM20,29.33A9.37,9.37,0,1,0,29.33,20,9.37,9.37,0,0,0,20,29.33Z"></path></svg>