<?xml version="1.0" standalone="no"?>
<!DOCTYPE svg PUBLIC "-//W3C//DTD SVG 20010904//EN"
 "http://www.w3.org/TR/2001/REC-SVG-20010904/DTD/svg10.dtd">
<svg version="1.0" xmlns="http://www.w3.org/2000/svg"
 width="1200.000000pt" height="1200.000000pt" viewBox="0 0 1200.000000 1200.000000"
 preserveAspectRatio="xMidYMid meet">
<metadata>
Created by potrace 1.11, written by Peter Selinger 2001-2013
</metadata>
<g transform="translate(0.000000,1200.000000) scale(0.100000,-0.100000)"
fill="#000000" stroke="none">
<path d="M4042 9955 c-109 -47 -141 -107 -181 -331 -17 -93 -33 -179 -36 -190
-4 -16 -20 -25 -67 -39 -73 -20 -254 -96 -315 -131 l-41 -25 -150 106 c-83 58
-167 112 -186 120 -51 22 -152 19 -206 -6 -56 -25 -298 -267 -326 -324 -12
-27 -19 -62 -19 -110 0 -86 10 -107 141 -292 l96 -135 -55 -116 c-31 -65 -70
-160 -87 -212 -17 -52 -32 -95 -33 -96 -1 -1 -83 -17 -182 -34 -99 -17 -199
-40 -222 -51 -54 -26 -116 -96 -131 -147 -19 -62 -16 -423 3 -469 49 -116 101
-145 341 -188 102 -19 188 -36 191 -38 2 -3 21 -54 42 -115 21 -60 59 -152 85
-203 25 -51 46 -96 46 -101 0 -5 -47 -77 -105 -160 -141 -203 -159 -267 -104
-383 26 -57 272 -298 329 -324 52 -24 136 -27 192 -7 20 7 101 58 180 113 78
55 148 103 155 106 6 4 56 -15 110 -42 55 -27 148 -66 209 -87 60 -20 110 -38
111 -38 1 -1 15 -80 32 -176 38 -214 50 -247 107 -300 73 -67 97 -73 285 -78
190 -5 255 5 323 48 77 49 99 96 135 288 17 92 34 178 37 192 4 22 17 30 107
59 57 18 152 57 212 86 l108 54 156 -108 c86 -59 171 -113 190 -120 53 -17
140 -13 191 10 61 28 292 257 325 323 29 58 34 155 11 211 -8 19 -62 101 -120
183 l-105 148 47 95 c25 52 65 148 87 214 l41 120 185 33 c214 38 265 60 316
135 46 68 56 133 51 331 -4 153 -7 176 -27 219 -25 50 -84 105 -137 126 -17 7
-111 26 -210 44 l-179 32 -35 105 c-20 58 -59 154 -88 213 l-52 109 106 149
c58 83 112 166 120 184 8 19 14 60 14 92 0 95 -28 139 -186 294 -124 122 -145
139 -193 153 -112 33 -158 17 -351 -118 -83 -58 -154 -106 -159 -106 -4 0 -49
21 -100 46 -51 26 -143 64 -205 85 -71 25 -114 45 -118 56 -4 10 -19 86 -33
168 -14 83 -30 167 -36 187 -15 57 -68 119 -128 150 l-53 28 -212 0 c-159 -1
-219 -4 -244 -15z m434 -1495 c308 -79 525 -316 580 -630 19 -114 12 -218 -23
-340 -39 -137 -85 -212 -198 -326 -87 -87 -113 -107 -195 -147 -117 -58 -212
-79 -355 -80 -85 -1 -127 4 -188 21 -292 83 -502 305 -564 595 -21 100 -13
287 17 382 79 254 288 454 541 520 124 32 272 34 385 5z"/>
<path d="M7050 7663 c0 -274 -58 -448 -199 -604 -91 -101 -212 -178 -348 -219
l-72 -22 24 -38 c70 -111 100 -228 100 -390 0 -127 -20 -222 -62 -304 -12 -23
-12 -28 -2 -23 8 3 52 22 99 42 47 20 137 50 200 67 108 30 126 31 300 32 144
1 203 -3 267 -17 244 -54 440 -151 621 -309 211 -183 356 -436 419 -728 25
-118 25 -390 0 -510 -62 -292 -202 -535 -420 -729 -549 -488 -1403 -427 -1875
135 -282 336 -379 770 -266 1191 20 78 40 130 100 270 3 6 -22 0 -56 -14 -105
-42 -192 -56 -320 -50 -129 6 -200 25 -311 81 -39 20 -72 36 -74 36 -1 0 -14
-37 -29 -82 -75 -242 -282 -435 -536 -503 -42 -11 -122 -19 -222 -22 l-158 -6
0 -106 c0 -196 30 -293 113 -368 66 -59 125 -79 352 -118 116 -20 217 -38 227
-41 10 -3 29 -43 52 -114 41 -124 101 -266 153 -358 l35 -63 -29 -42 c-265
-375 -276 -397 -277 -507 0 -123 24 -162 216 -357 198 -199 245 -228 368 -227
43 1 94 8 119 18 24 9 131 77 237 151 l194 136 62 -35 c92 -50 216 -104 353
-150 l120 -41 22 -125 c60 -336 64 -356 94 -408 16 -29 52 -70 80 -92 83 -66
120 -72 411 -68 241 3 255 4 296 26 62 33 114 84 145 139 26 49 37 96 86 373
l27 155 119 41 c144 49 245 92 343 145 l74 39 189 -131 c232 -159 260 -173
359 -173 122 0 162 24 357 216 199 197 228 244 228 368 -1 100 -20 138 -179
367 l-126 181 34 64 c52 94 104 218 150 353 l41 120 220 39 c121 21 245 48
275 59 75 28 150 104 179 182 21 56 22 71 19 319 -3 294 -5 299 -90 392 -65
70 -116 88 -372 133 -126 22 -230 41 -231 43 -2 2 -22 59 -45 127 -23 68 -71
185 -108 260 -36 75 -66 141 -65 147 0 5 57 92 127 193 136 195 162 243 172
319 8 59 -15 156 -50 209 -13 21 -98 110 -187 199 -197 193 -223 209 -349 209
-110 0 -130 -10 -357 -169 -99 -69 -187 -126 -194 -126 -8 0 -39 14 -69 31
-95 52 -210 101 -340 144 l-125 42 -36 209 c-20 115 -41 226 -47 247 -28 100
-118 193 -214 222 -36 10 -96 15 -195 15 l-143 0 0 -97z"/>
<path d="M6960 5534 c-92 -20 -217 -85 -289 -151 -259 -234 -292 -614 -78
-892 122 -158 358 -264 553 -248 162 14 313 86 424 203 77 82 128 168 160 269
28 91 31 250 6 345 -91 339 -434 548 -776 474z"/>
</g>
</svg>
